<?xml version="1.0" encoding="UTF-8"?>
<svg id="Layer_1" xmlns="http://www.w3.org/2000/svg" version="1.1" viewBox="0 0 1080 1080">
  <!-- Generator: Adobe Illustrator 29.0.0, SVG Export Plug-In . SVG Version: 2.1.0 Build 186)  -->
  <defs>
    <style>
      .st0 {
        fill: #d4af34;
      }
    </style>
  </defs>
  <path class="st0" d="M546.71,974.6c-.18.88-5.67,10.12-6.67,11.28-16.62,19.2-46.82,7.75-50.12-16.45l-.16-414.29c-209.9-24.08-282.74-300.53-109.36-425.04,172.11-123.6,409.54,20.61,373.46,231.12-8.19,47.77-32.4,89-64.7,124.17l102.02,104.06c16.35,20.44-7.56,50.09-30.02,35.04l-109.78-109.17c-30.57,21.13-66.09,34.72-103,39.79v249.51h67.82c.59,0,1.86-2.97,4.19.84v41.86c-1.25,1.71-1.46,1.82-3.42,1.82-12.9.04-26.38-2.43-39.34-.36l-2.45,1.89v52.75h45.21v44.38l-2.51,2.51h-71.17c-1,7.2,1.37,17.61,0,24.28ZM473.03,356.7c-3.33,11.69,2.48,39.21,0,52.75h-42.7l-2.51-2.51v-174.99h45.21v72l74.52-72h56.1l-85.37,84.52,127.23,125.69c95.73-96.01,42.89-260.44-88.41-288.41-128.25-27.33-239.43,85.64-208.52,213.55,27.56,114.08,162.75,167.84,261.77,104.09l-123.93-124.83c-2.38-2.37-13.14,9.3-13.38,10.15Z"/>
</svg>